<?xml version="1.0" encoding="UTF-8"?>
<svg id="Layer_2" data-name="Layer 2" xmlns="http://www.w3.org/2000/svg" viewBox="0 0 1534.96 424.27">
  <defs>
    <style>
      .cls-1 {
        fill: #244b76;
      }
    </style>
  </defs>
  <g id="Layer_1-2" data-name="Layer 1">
    <path class="cls-1" d="M96.22,393.89l-7.59,30.37h37.93l3.36-13.37c20,7.64,41.5,11.88,63.86,11.88,36.11,0,69.93-10.96,98.91-29.79l30.57,31.28h49.01l-28.3-79.52c27.25-36.42,43.6-82.81,43.6-133.38C387.59,94.8,300.65,0,193.79,0S0,94.77,0,211.35c0,77.79,38.71,145.84,96.22,182.55ZM296.03,343.85l-26.78-27.52-26.38,25.67,23.57,24.22c-21.73,12.67-46.44,19.84-72.64,19.84-19.3,0-37.81-3.72-54.91-10.84l33.33-133.95h95.77l34.31,96.44c-2.03,2.17-4.12,4.1-6.26,6.14ZM350.77,211.45c0,32.77-8.16,63.46-22.33,89.69L236.97,43.57c65.63,20.91,113.8,88.26,113.8,167.88ZM211.64,82.41l43.27,121.86h-73.55l30.28-121.86ZM184.91,37.13l-79.2,318.78c-41.55-31.44-68.89-84.46-68.89-144.45,0-92.96,65.65-169.18,148.1-174.32Z"/>
    <g>
      <path class="cls-1" d="M534.98,106.04c6.58,0,12.16.61,16.71,1.83s8.23,3.31,11.04,6.27c2.81,2.96,4.85,7.01,6.11,12.15,1.26,5.14,1.89,11.67,1.89,19.59s-.63,14.36-1.89,19.54c-1.26,5.18-3.29,9.25-6.11,12.21-2.81,2.96-6.49,5.05-11.04,6.27s-10.12,1.83-16.71,1.83-12.04-.61-16.59-1.83-8.23-3.31-11.04-6.27c-2.81-2.96-4.85-7.03-6.1-12.21-1.26-5.18-1.89-11.69-1.89-19.54s.63-14.45,1.89-19.59c1.26-5.14,3.29-9.19,6.1-12.15,2.81-2.96,6.49-5.05,11.04-6.27s10.08-1.83,16.59-1.83ZM528.43,187.07c5.55,2.07,11.27,3.7,17.15,4.88,5.88,1.18,12.34,2.29,19.37,3.33l-5.88,19.43c-7.55-2.15-14.3-4.61-20.26-7.38-5.96-2.78-11.12-5.72-15.48-8.82l5.11-11.43ZM534.98,123.91c-2.74,0-4.85.59-6.33,1.78-1.48,1.18-2.52,3.37-3.11,6.55-.59,3.18-.89,7.73-.89,13.65s.29,10.47.89,13.65c.59,3.18,1.63,5.37,3.11,6.55,1.48,1.18,3.59,1.78,6.33,1.78s4.85-.59,6.33-1.78c1.48-1.18,2.51-3.37,3.11-6.55.59-3.18.89-7.73.89-13.65s-.3-10.47-.89-13.65c-.59-3.18-1.63-5.36-3.11-6.55-1.48-1.18-3.59-1.78-6.33-1.78Z"/>
      <path class="cls-1" d="M647.31,107.59v44.96c0,8.14-1.05,14.63-3.16,19.48-2.11,4.85-5.55,8.34-10.32,10.49-4.77,2.15-11.16,3.22-19.15,3.22-8.66,0-15.56-1.07-20.7-3.22-5.14-2.15-8.84-5.64-11.1-10.49-2.26-4.85-3.39-11.34-3.39-19.48v-44.96h24.09v44.96c0,4.07.28,7.21.83,9.43.55,2.22,1.55,3.76,3,4.61,1.44.85,3.46,1.28,6.05,1.28s4.59-.42,5.99-1.28c1.41-.85,2.39-2.39,2.94-4.61.56-2.22.83-5.36.83-9.43v-44.96h24.09Z"/>
      <path class="cls-1" d="M675.72,107.15c4.44,0,9.01.02,13.71.06,4.7.04,9.31.15,13.82.33,4.51.19,8.62.54,12.32,1.05l-1.11,16.98h-28.08c-1.41,0-2.52.37-3.33,1.11-.82.74-1.22,1.7-1.22,2.89v32.63c0,1.18.41,2.15,1.22,2.89.81.74,1.92,1.11,3.33,1.11h28.08l1.11,16.98c-3.7.44-7.81.78-12.32,1s-9.12.35-13.82.39c-4.7.04-9.27.06-13.71.06-5.26,0-9.57-1.61-12.93-4.83-3.37-3.22-5.05-7.42-5.05-12.6v-42.62c0-5.18,1.68-9.38,5.05-12.6,3.37-3.22,7.68-4.83,12.93-4.83ZM659.74,137.01h50.73v15.98h-50.73v-15.98Z"/>
      <path class="cls-1" d="M741.88,107.15c4.44,0,9.01.02,13.71.06,4.7.04,9.31.15,13.82.33,4.51.19,8.62.54,12.32,1.05l-1.11,16.98h-28.08c-1.41,0-2.52.37-3.33,1.11-.82.74-1.22,1.7-1.22,2.89v32.63c0,1.18.41,2.15,1.22,2.89.81.74,1.92,1.11,3.33,1.11h28.08l1.11,16.98c-3.7.44-7.81.78-12.32,1s-9.12.35-13.82.39c-4.7.04-9.27.06-13.71.06-5.26,0-9.57-1.61-12.93-4.83-3.37-3.22-5.05-7.42-5.05-12.6v-42.62c0-5.18,1.68-9.38,5.05-12.6,3.37-3.22,7.68-4.83,12.93-4.83ZM725.89,137.01h50.73v15.98h-50.73v-15.98Z"/>
      <path class="cls-1" d="M861.09,107.59v68.26c0,5.55-2.77,8.33-8.33,8.33h-9.21c-2.52,0-4.38-.59-5.61-1.78-1.22-1.18-2.46-2.92-3.72-5.22l-16.65-26.31c-1.04-1.92-1.98-4.01-2.83-6.27-.85-2.26-1.61-4.53-2.28-6.83h-.78c.37,2.29.65,4.65.83,7.05.18,2.41.28,4.72.28,6.94v32.41h-22.2v-68.26c0-5.55,2.77-8.33,8.32-8.33h9.21c2.52,0,4.37.59,5.55,1.78,1.18,1.18,2.44,2.92,3.77,5.22l15.98,25.09c1.04,1.85,2.05,3.88,3.05,6.1,1,2.22,1.94,4.55,2.83,6.99h.78c-.3-2.37-.54-4.7-.72-6.99-.19-2.29-.28-4.59-.28-6.88l-.11-31.3h22.09Z"/>
      <path class="cls-1" d="M901.6,106.04c4,0,8.49.24,13.49.72,5,.48,9.79,1.54,14.37,3.16l-1.44,15.43c-3.33-.07-7.46-.13-12.38-.17-4.92-.04-9.79-.06-14.6-.06-1.41,0-2.57.04-3.5.11-.93.08-1.65.22-2.17.44-.52.22-.89.52-1.11.89-.22.37-.33.85-.33,1.44,0,1.04.46,1.91,1.39,2.61.92.7,2.68,1.57,5.27,2.61l13.88,5.77c6.36,2.74,10.82,5.9,13.38,9.49,2.55,3.59,3.83,8.2,3.83,13.82,0,4.29-.52,7.94-1.55,10.93-1.04,3-2.76,5.4-5.16,7.21-2.41,1.81-5.61,3.15-9.6,4s-8.99,1.28-14.99,1.28c-2.59,0-6.51-.2-11.77-.61-5.25-.41-11.21-1.46-17.87-3.16l1.44-16.87c4.44.07,8.51.17,12.21.28,3.7.11,6.9.19,9.6.22,2.7.04,4.72.06,6.05.06,2.07,0,3.64-.07,4.72-.22,1.07-.15,1.81-.42,2.22-.83.41-.41.61-.94.61-1.61,0-.74-.15-1.35-.44-1.83-.3-.48-.82-.94-1.55-1.39-.74-.44-1.81-.92-3.22-1.44l-15.21-6.66c-6.22-2.81-10.62-5.96-13.21-9.43-2.59-3.48-3.88-8.03-3.88-13.65,0-4.37.57-7.99,1.72-10.88,1.15-2.89,2.94-5.18,5.38-6.88,2.44-1.7,5.68-2.92,9.71-3.66,4.03-.74,8.94-1.11,14.71-1.11Z"/>
      <path class="cls-1" d="M964.09,107.59v53.5c0,1.18.42,2.15,1.28,2.89.85.74,1.98,1.11,3.39,1.11h25.75l1.11,17.98c-5.7.74-11.79,1.18-18.26,1.33-6.48.15-12.86.22-19.15.22-5.55,0-9.97-1.61-13.26-4.83-3.29-3.22-4.94-7.42-4.94-12.6v-59.61h24.09Z"/>
      <path class="cls-1" d="M1045.12,107.59c1.92,0,3.62.55,5.11,1.67,1.48,1.11,2.48,2.63,3,4.55l19.87,70.37h-24.53l-11.54-49.84c-.3-1.41-.56-2.87-.78-4.38-.22-1.52-.41-2.98-.55-4.38h-3c-.15,1.41-.33,2.87-.56,4.38-.22,1.52-.48,2.98-.78,4.38l-11.54,49.84h-24.53l19.87-70.37c.52-1.92,1.52-3.44,3-4.55,1.48-1.11,3.18-1.67,5.11-1.67h21.87ZM1054.56,150.77v16.87h-40.74v-16.87h40.74Z"/>
      <path class="cls-1" d="M1148.35,107.59v68.26c0,5.55-2.77,8.33-8.33,8.33h-9.21c-2.52,0-4.38-.59-5.61-1.78-1.22-1.18-2.46-2.92-3.72-5.22l-16.65-26.31c-1.04-1.92-1.98-4.01-2.83-6.27-.85-2.26-1.61-4.53-2.28-6.83h-.78c.37,2.29.65,4.65.83,7.05.18,2.41.28,4.72.28,6.94v32.41h-22.2v-68.26c0-5.55,2.77-8.33,8.32-8.33h9.21c2.52,0,4.37.59,5.55,1.78,1.18,1.18,2.44,2.92,3.77,5.22l15.98,25.09c1.04,1.85,2.05,3.88,3.05,6.1,1,2.22,1.94,4.55,2.83,6.99h.78c-.3-2.37-.54-4.7-.72-6.99-.19-2.29-.28-4.59-.28-6.88l-.11-31.3h22.09Z"/>
      <path class="cls-1" d="M1192.53,106.48c6.59,0,12.16.61,16.71,1.83,4.55,1.22,8.23,3.29,11.04,6.22,2.81,2.92,4.85,6.94,6.11,12.04,1.26,5.11,1.89,11.54,1.89,19.31s-.63,14.21-1.89,19.31c-1.26,5.11-3.29,9.12-6.11,12.04-2.81,2.92-6.49,5-11.04,6.22s-10.12,1.83-16.71,1.83-12.21-.11-17.54-.33c-5.33-.22-10.4-.48-15.21-.78l9.77-17.09c2.59.3,5.86.5,9.82.61,3.96.11,8.34.17,13.15.17,2.74,0,4.85-.59,6.33-1.78,1.48-1.18,2.51-3.37,3.11-6.55.59-3.18.89-7.73.89-13.65s-.3-10.47-.89-13.65c-.59-3.18-1.63-5.36-3.11-6.55-1.48-1.18-3.59-1.78-6.33-1.78h-11.93c-3.44,0-6.79-.04-10.05-.11l-10.77-16.21c4.88-.29,9.93-.55,15.15-.78,5.22-.22,11.08-.33,17.59-.33ZM1183.87,107.59v76.59h-24.09v-76.59h24.09Z"/>
      <path class="cls-1" d="M544.63,240.79c1.92,0,3.62.55,5.11,1.67,1.48,1.11,2.48,2.63,3,4.55l19.87,70.37h-24.53l-11.54-49.84c-.3-1.41-.55-2.87-.78-4.38-.22-1.52-.41-2.98-.55-4.38h-3c-.15,1.41-.33,2.87-.55,4.38-.22,1.52-.48,2.98-.78,4.38l-11.54,49.84h-24.53l19.87-70.37c.52-1.92,1.52-3.44,3-4.55,1.48-1.11,3.18-1.67,5.11-1.67h21.87ZM554.07,283.97v16.87h-40.74v-16.87h40.74Z"/>
      <path class="cls-1" d="M643.54,240.79v44.96c0,8.14-1.05,14.63-3.16,19.48-2.11,4.85-5.55,8.34-10.32,10.49-4.77,2.15-11.16,3.22-19.15,3.22-8.66,0-15.56-1.07-20.7-3.22-5.14-2.15-8.84-5.64-11.1-10.49-2.26-4.85-3.39-11.34-3.39-19.48v-44.96h24.09v44.96c0,4.07.28,7.21.83,9.43.55,2.22,1.55,3.76,3,4.61,1.44.85,3.46,1.28,6.05,1.28s4.59-.42,5.99-1.28c1.41-.85,2.39-2.39,2.94-4.61.56-2.22.83-5.36.83-9.43v-44.96h24.09Z"/>
      <path class="cls-1" d="M687.27,239.68c6.59,0,12.16.61,16.71,1.83,4.55,1.22,8.23,3.29,11.04,6.22,2.81,2.92,4.85,6.94,6.11,12.04,1.26,5.11,1.89,11.54,1.89,19.31s-.63,14.21-1.89,19.31c-1.26,5.11-3.29,9.12-6.11,12.04-2.81,2.92-6.49,5-11.04,6.22s-10.12,1.83-16.71,1.83-12.21-.11-17.54-.33c-5.33-.22-10.4-.48-15.21-.78l9.77-17.09c2.59.3,5.86.5,9.82.61,3.96.11,8.34.17,13.15.17,2.74,0,4.85-.59,6.33-1.78,1.48-1.18,2.51-3.37,3.11-6.55.59-3.18.89-7.73.89-13.65s-.3-10.47-.89-13.65c-.59-3.18-1.63-5.36-3.11-6.55-1.48-1.18-3.59-1.78-6.33-1.78h-11.93c-3.44,0-6.79-.04-10.05-.11l-10.77-16.21c4.88-.29,9.93-.55,15.15-.78,5.22-.22,11.08-.33,17.59-.33ZM678.61,240.79v76.59h-24.09v-76.59h24.09Z"/>
      <path class="cls-1" d="M756.31,240.79v76.59h-23.87v-76.59h23.87Z"/>
      <path class="cls-1" d="M830.23,240.79v17.98h-66.93v-17.98h66.93ZM808.81,240.79v76.59h-24.09v-76.59h24.09Z"/>
      <path class="cls-1" d="M887.17,239.24c4,0,8.49.24,13.49.72,5,.48,9.79,1.54,14.37,3.16l-1.44,15.43c-3.33-.07-7.46-.13-12.38-.17-4.92-.04-9.79-.06-14.6-.06-1.41,0-2.57.04-3.5.11-.93.08-1.65.22-2.17.44-.52.22-.89.52-1.11.89-.22.37-.33.85-.33,1.44,0,1.04.46,1.91,1.39,2.61.92.7,2.68,1.57,5.27,2.61l13.88,5.77c6.36,2.74,10.82,5.9,13.38,9.49,2.55,3.59,3.83,8.2,3.83,13.82,0,4.29-.52,7.94-1.55,10.93-1.04,3-2.76,5.4-5.16,7.21-2.41,1.81-5.61,3.15-9.6,4s-8.99,1.28-14.99,1.28c-2.59,0-6.51-.2-11.77-.61-5.25-.41-11.21-1.46-17.87-3.16l1.44-16.87c4.44.07,8.51.17,12.21.28,3.7.11,6.9.19,9.6.22,2.7.04,4.72.06,6.05.06,2.07,0,3.64-.07,4.72-.22,1.07-.15,1.81-.42,2.22-.83.41-.41.61-.94.61-1.61,0-.74-.15-1.35-.44-1.83-.3-.48-.82-.94-1.55-1.39-.74-.44-1.81-.92-3.22-1.44l-15.21-6.66c-6.22-2.81-10.62-5.96-13.21-9.43-2.59-3.48-3.88-8.03-3.88-13.65,0-4.37.57-7.99,1.72-10.88,1.15-2.89,2.94-5.18,5.38-6.88,2.44-1.7,5.68-2.92,9.71-3.66,4.03-.74,8.94-1.11,14.71-1.11Z"/>
      <path class="cls-1" d="M958.21,239.68c8.14,0,14.5.76,19.09,2.28,4.59,1.52,7.84,4.16,9.77,7.94,1.92,3.77,2.89,9.07,2.89,15.87s-.91,11.97-2.72,15.71c-1.81,3.74-4.79,6.37-8.94,7.88-4.15,1.52-9.73,2.28-16.76,2.28-3.7,0-7.4-.2-11.1-.61-3.7-.41-7.16-.92-10.38-1.55-3.22-.63-5.98-1.29-8.27-2-2.29-.7-3.88-1.35-4.77-1.94l.33-10.88h30.3c2.22,0,3.92-.24,5.11-.72,1.18-.48,2-1.37,2.44-2.66.44-1.29.67-3.13.67-5.5s-.22-4.33-.67-5.66c-.44-1.33-1.26-2.24-2.44-2.72-1.18-.48-2.89-.72-5.11-.72-7.55,0-13.99.04-19.31.11-5.33.08-8.96.22-10.88.44l-1.66-16.43c3.4-.37,6.6-.63,9.6-.78,3-.15,6.27-.24,9.82-.28,3.55-.04,7.88-.06,12.99-.06ZM949.89,240.79v76.59h-24.09v-76.59h24.09Z"/>
      <path class="cls-1" d="M1014.93,240.35c4.44,0,9.01.02,13.71.06,4.7.04,9.31.15,13.82.33,4.51.19,8.62.54,12.32,1.05l-1.11,16.98h-28.08c-1.41,0-2.52.37-3.33,1.11-.82.74-1.22,1.7-1.22,2.89v32.63c0,1.18.41,2.15,1.22,2.89.81.74,1.92,1.11,3.33,1.11h28.08l1.11,16.98c-3.7.44-7.81.78-12.32,1s-9.12.35-13.82.39c-4.7.04-9.27.06-13.71.06-5.26,0-9.57-1.61-12.93-4.83-3.37-3.22-5.05-7.42-5.05-12.6v-42.62c0-5.18,1.68-9.38,5.05-12.6,3.37-3.22,7.68-4.83,12.93-4.83ZM998.95,270.21h50.73v15.98h-50.73v-15.98Z"/>
      <path class="cls-1" d="M1095.41,239.46c4,0,7.4.11,10.21.33,2.81.22,5.38.54,7.71.94,2.33.41,4.75.98,7.27,1.72l-1.78,17.54c-2.59-.07-5-.11-7.21-.11s-4.59-.02-7.1-.06c-2.52-.04-5.55-.06-9.1-.06-2.52,0-4.46.54-5.83,1.61-1.37,1.07-2.31,3-2.83,5.77-.52,2.78-.78,6.75-.78,11.93s.26,9.16.78,11.93c.52,2.77,1.46,4.7,2.83,5.77,1.37,1.07,3.31,1.61,5.83,1.61,5.55,0,10.19-.05,13.93-.17,3.74-.11,7.45-.35,11.16-.72l1.78,17.54c-3.85,1.33-7.79,2.28-11.82,2.83-4.03.56-9.05.83-15.04.83-8.44,0-15.21-1.28-20.31-3.83-5.11-2.55-8.79-6.72-11.04-12.49-2.26-5.77-3.39-13.54-3.39-23.31s1.13-17.54,3.39-23.31c2.26-5.77,5.94-9.93,11.04-12.49,5.11-2.55,11.88-3.83,20.31-3.83Z"/>
      <path class="cls-1" d="M1154.02,240.79v76.59h-23.87v-76.59h23.87Z"/>
      <path class="cls-1" d="M1208.74,240.79c1.92,0,3.62.55,5.11,1.67,1.48,1.11,2.48,2.63,3,4.55l19.87,70.37h-24.53l-11.54-49.84c-.3-1.41-.56-2.87-.78-4.38-.22-1.52-.41-2.98-.55-4.38h-3c-.15,1.41-.33,2.87-.56,4.38-.22,1.52-.48,2.98-.78,4.38l-11.54,49.84h-24.53l19.87-70.37c.52-1.92,1.52-3.44,3-4.55,1.48-1.11,3.18-1.67,5.11-1.67h21.87ZM1218.17,283.97v16.87h-40.74v-16.87h40.74Z"/>
      <path class="cls-1" d="M1265.35,240.79v53.5c0,1.18.42,2.15,1.28,2.89.85.74,1.98,1.11,3.39,1.11h25.75l1.11,17.98c-5.7.74-11.79,1.18-18.26,1.33-6.48.15-12.86.22-19.15.22-5.55,0-9.97-1.61-13.26-4.83-3.29-3.22-4.94-7.42-4.94-12.6v-59.61h24.09Z"/>
      <path class="cls-1" d="M1327.29,240.79v76.59h-23.87v-76.59h23.87Z"/>
      <path class="cls-1" d="M1368.02,239.24c4,0,8.49.24,13.49.72,5,.48,9.79,1.54,14.37,3.16l-1.44,15.43c-3.33-.07-7.46-.13-12.38-.17-4.92-.04-9.79-.06-14.6-.06-1.41,0-2.57.04-3.5.11-.93.08-1.65.22-2.17.44-.52.22-.89.52-1.11.89-.22.37-.33.85-.33,1.44,0,1.04.46,1.91,1.39,2.61.92.7,2.68,1.57,5.27,2.61l13.88,5.77c6.36,2.74,10.82,5.9,13.38,9.49,2.55,3.59,3.83,8.2,3.83,13.82,0,4.29-.52,7.94-1.55,10.93-1.04,3-2.76,5.4-5.16,7.21-2.41,1.81-5.61,3.15-9.6,4s-8.99,1.28-14.99,1.28c-2.59,0-6.51-.2-11.77-.61-5.25-.41-11.21-1.46-17.87-3.16l1.44-16.87c4.44.07,8.51.17,12.21.28,3.7.11,6.9.19,9.6.22,2.7.04,4.72.06,6.05.06,2.07,0,3.64-.07,4.72-.22,1.07-.15,1.81-.42,2.22-.83.41-.41.61-.94.61-1.61,0-.74-.15-1.35-.44-1.83-.3-.48-.82-.94-1.55-1.39-.74-.44-1.81-.92-3.22-1.44l-15.21-6.66c-6.22-2.81-10.62-5.96-13.21-9.43-2.59-3.48-3.88-8.03-3.88-13.65,0-4.37.57-7.99,1.72-10.88,1.15-2.89,2.94-5.18,5.38-6.88,2.44-1.7,5.68-2.92,9.71-3.66,4.03-.74,8.94-1.11,14.71-1.11Z"/>
      <path class="cls-1" d="M1468.92,240.79v17.98h-66.93v-17.98h66.93ZM1447.5,240.79v76.59h-24.09v-76.59h24.09Z"/>
      <path class="cls-1" d="M1504.88,239.24c4,0,8.49.24,13.49.72,5,.48,9.79,1.54,14.37,3.16l-1.44,15.43c-3.33-.07-7.46-.13-12.38-.17-4.92-.04-9.79-.06-14.6-.06-1.41,0-2.57.04-3.5.11-.93.08-1.65.22-2.17.44-.52.22-.89.52-1.11.89-.22.37-.33.85-.33,1.44,0,1.04.46,1.91,1.39,2.61.92.7,2.68,1.57,5.27,2.61l13.88,5.77c6.36,2.74,10.82,5.9,13.38,9.49,2.55,3.59,3.83,8.2,3.83,13.82,0,4.29-.52,7.94-1.55,10.93-1.04,3-2.76,5.4-5.16,7.21-2.41,1.81-5.61,3.15-9.6,4s-8.99,1.28-14.99,1.28c-2.59,0-6.51-.2-11.77-.61-5.25-.41-11.21-1.46-17.87-3.16l1.44-16.87c4.44.07,8.51.17,12.21.28,3.7.11,6.9.19,9.6.22,2.7.04,4.72.06,6.05.06,2.07,0,3.64-.07,4.72-.22,1.07-.15,1.81-.42,2.22-.83.41-.41.61-.94.61-1.61,0-.74-.15-1.35-.44-1.83-.3-.48-.82-.94-1.55-1.39-.74-.44-1.81-.92-3.22-1.44l-15.21-6.66c-6.22-2.81-10.62-5.96-13.21-9.43-2.59-3.48-3.88-8.03-3.88-13.65,0-4.37.57-7.99,1.72-10.88,1.15-2.89,2.94-5.18,5.38-6.88,2.44-1.7,5.68-2.92,9.71-3.66,4.03-.74,8.94-1.11,14.71-1.11Z"/>
    </g>
  </g>
</svg>