<?xml version="1.0" encoding="UTF-8"?>
<svg id="Layer_2" data-name="Layer 2" xmlns="http://www.w3.org/2000/svg" viewBox="0 0 234.27 47.95">
  <defs>
    <style>
      .cls-1 {
        fill: #244b76;
      }
    </style>
  </defs>
  <g id="Layer_1-2" data-name="Layer 1">
    <g>
      <path class="cls-1" d="M43.5,0c1.48,0,2.74.14,3.76.41s1.85.75,2.49,1.41c.63.67,1.09,1.58,1.38,2.74.28,1.16.42,2.63.42,4.41s-.14,3.23-.42,4.4c-.28,1.17-.74,2.08-1.38,2.75-.63.67-1.46,1.14-2.49,1.41s-2.28.41-3.76.41-2.71-.14-3.74-.41-1.85-.75-2.49-1.41c-.63-.67-1.09-1.58-1.38-2.75-.28-1.17-.43-2.63-.43-4.4s.14-3.25.43-4.41c.28-1.16.74-2.07,1.38-2.74.63-.67,1.46-1.14,2.49-1.41s2.27-.41,3.74-.41ZM42.02,18.25c1.25.47,2.54.83,3.86,1.1,1.33.27,2.78.52,4.36.75l-1.33,4.38c-1.7-.48-3.22-1.04-4.56-1.66-1.34-.62-2.5-1.29-3.49-1.99l1.15-2.57ZM43.5,4.02c-.62,0-1.09.13-1.43.4s-.57.76-.7,1.47c-.13.72-.2,1.74-.2,3.08s.07,2.36.2,3.08c.13.72.37,1.21.7,1.47s.81.4,1.43.4,1.09-.13,1.42-.4c.33-.27.57-.76.7-1.47.13-.72.2-1.74.2-3.08s-.07-2.36-.2-3.08c-.13-.72-.37-1.21-.7-1.47-.33-.27-.81-.4-1.42-.4Z"/>
      <path class="cls-1" d="M68.8.35v10.12c0,1.83-.24,3.3-.71,4.39-.47,1.09-1.25,1.88-2.32,2.36-1.08.48-2.51.72-4.31.72-1.95,0-3.5-.24-4.66-.72-1.16-.48-1.99-1.27-2.5-2.36-.51-1.09-.76-2.55-.76-4.39V.35h5.43v10.12c0,.92.06,1.62.19,2.12s.35.85.67,1.04c.33.19.78.29,1.36.29s1.03-.1,1.35-.29c.32-.19.54-.54.66-1.04s.19-1.21.19-2.12V.35h5.43Z"/>
      <path class="cls-1" d="M75.2.25c1,0,2.03,0,3.09.01,1.06,0,2.1.03,3.11.08,1.02.04,1.94.12,2.78.24l-.25,3.83h-6.33c-.32,0-.57.08-.75.25-.18.17-.27.38-.27.65v7.35c0,.27.09.48.27.65.18.17.43.25.75.25h6.33l.25,3.83c-.83.1-1.76.17-2.78.22s-2.05.08-3.11.09c-1.06,0-2.09.01-3.09.01-1.18,0-2.15-.36-2.91-1.09-.76-.73-1.14-1.67-1.14-2.84V4.17c0-1.17.38-2.11,1.14-2.84.76-.72,1.73-1.09,2.91-1.09ZM71.6,6.97h11.42v3.6h-11.42v-3.6Z"/>
      <path class="cls-1" d="M90.1.25c1,0,2.03,0,3.09.01,1.06,0,2.1.03,3.11.08,1.02.04,1.94.12,2.78.24l-.25,3.83h-6.33c-.32,0-.57.08-.75.25-.18.17-.27.38-.27.65v7.35c0,.27.09.48.27.65.18.17.43.25.75.25h6.33l.25,3.83c-.83.1-1.76.17-2.78.22s-2.05.08-3.11.09c-1.06,0-2.09.01-3.09.01-1.18,0-2.15-.36-2.91-1.09-.76-.73-1.14-1.67-1.14-2.84V4.17c0-1.17.38-2.11,1.14-2.84.76-.72,1.73-1.09,2.91-1.09ZM86.5,6.97h11.42v3.6h-11.42v-3.6Z"/>
      <path class="cls-1" d="M116.95.35v15.38c0,1.25-.62,1.88-1.88,1.88h-2.07c-.57,0-.99-.13-1.26-.4-.27-.27-.55-.66-.84-1.17l-3.75-5.92c-.23-.43-.45-.9-.64-1.41-.19-.51-.36-1.02-.51-1.54h-.18c.08.52.15,1.05.19,1.59s.06,1.06.06,1.56v7.3h-5V2.22c0-1.25.62-1.88,1.88-1.88h2.08c.57,0,.98.13,1.25.4s.55.66.85,1.17l3.6,5.65c.23.42.46.88.69,1.38.22.5.44,1.03.64,1.58h.18c-.07-.53-.12-1.06-.16-1.58-.04-.52-.06-1.03-.06-1.55l-.02-7.05h4.97Z"/>
      <path class="cls-1" d="M126.07,0c.9,0,1.91.05,3.04.16s2.2.35,3.24.71l-.33,3.47c-.75-.02-1.68-.03-2.79-.04-1.11,0-2.21-.01-3.29-.01-.32,0-.58,0-.79.02-.21.02-.37.05-.49.1-.12.05-.2.12-.25.2-.05.08-.08.19-.08.32,0,.23.1.43.31.59.21.16.6.35,1.19.59l3.12,1.3c1.43.62,2.44,1.33,3.01,2.14.57.81.86,1.85.86,3.11,0,.97-.12,1.79-.35,2.46-.23.68-.62,1.22-1.16,1.62-.54.41-1.26.71-2.16.9-.9.19-2.03.29-3.38.29-.58,0-1.47-.05-2.65-.14-1.18-.09-2.53-.33-4.03-.71l.33-3.8c1,.02,1.92.04,2.75.06.83.02,1.55.04,2.16.05.61,0,1.06.01,1.36.01.47,0,.82-.02,1.06-.05.24-.03.41-.1.5-.19.09-.09.14-.21.14-.36,0-.17-.03-.3-.1-.41s-.18-.21-.35-.31c-.17-.1-.41-.21-.73-.33l-3.42-1.5c-1.4-.63-2.39-1.34-2.97-2.12-.58-.78-.88-1.81-.88-3.08,0-.98.13-1.8.39-2.45.26-.65.66-1.17,1.21-1.55.55-.38,1.28-.66,2.19-.82.91-.17,2.01-.25,3.31-.25Z"/>
      <path class="cls-1" d="M140.15.35v12.05c0,.27.1.48.29.65.19.17.45.25.76.25h5.8l.25,4.05c-1.28.17-2.65.27-4.11.3-1.46.03-2.9.05-4.31.05-1.25,0-2.25-.36-2.99-1.09-.74-.73-1.11-1.67-1.11-2.84V.35h5.42Z"/>
      <path class="cls-1" d="M158.4.35c.43,0,.82.12,1.15.38.33.25.56.59.67,1.03l4.48,15.85h-5.53l-2.6-11.22c-.07-.32-.12-.65-.17-.99-.05-.34-.09-.67-.12-.99h-.67c-.03.32-.08.65-.12.99-.05.34-.11.67-.17.99l-2.6,11.22h-5.52l4.47-15.85c.12-.43.34-.78.67-1.03.33-.25.72-.38,1.15-.38h4.92ZM160.52,10.07v3.8h-9.17v-3.8h9.17Z"/>
      <path class="cls-1" d="M181.65.35v15.38c0,1.25-.62,1.88-1.88,1.88h-2.08c-.57,0-.99-.13-1.26-.4-.28-.27-.55-.66-.84-1.17l-3.75-5.92c-.23-.43-.45-.9-.64-1.41-.19-.51-.36-1.02-.51-1.54h-.17c.08.52.15,1.05.19,1.59s.06,1.06.06,1.56v7.3h-5V2.22c0-1.25.62-1.88,1.88-1.88h2.08c.57,0,.98.13,1.25.4s.55.66.85,1.17l3.6,5.65c.23.42.46.88.69,1.38.22.5.44,1.03.64,1.58h.17c-.07-.53-.12-1.06-.16-1.58-.04-.52-.06-1.03-.06-1.55l-.02-7.05h4.97Z"/>
      <path class="cls-1" d="M191.6.1c1.48,0,2.74.14,3.76.41,1.03.28,1.85.74,2.49,1.4s1.09,1.56,1.38,2.71c.28,1.15.42,2.6.42,4.35s-.14,3.2-.42,4.35c-.28,1.15-.74,2.05-1.38,2.71s-1.46,1.12-2.49,1.4c-1.03.27-2.28.41-3.76.41s-2.75-.03-3.95-.08c-1.2-.05-2.34-.11-3.42-.17l2.2-3.85c.58.07,1.32.11,2.21.14.89.03,1.88.04,2.96.04.62,0,1.09-.13,1.42-.4.33-.27.57-.76.7-1.47s.2-1.74.2-3.08-.07-2.36-.2-3.08c-.13-.72-.37-1.21-.7-1.47-.33-.27-.81-.4-1.42-.4h-2.69c-.77,0-1.53,0-2.26-.02l-2.42-3.65c1.1-.07,2.24-.12,3.41-.17,1.17-.05,2.5-.08,3.96-.08ZM189.65.35v17.25h-5.42V.35h5.42Z"/>
      <path class="cls-1" d="M11.23,30.35c.43,0,.82.12,1.15.38s.56.59.68,1.03l4.47,15.85h-5.52l-2.6-11.22c-.07-.32-.12-.65-.17-.99-.05-.34-.09-.67-.12-.99h-.67c-.03.32-.08.65-.12.99-.05.34-.11.67-.18.99l-2.6,11.22H0l4.48-15.85c.12-.43.34-.78.67-1.03s.72-.38,1.15-.38h4.92ZM13.35,40.07v3.8H4.18v-3.8h9.17Z"/>
      <path class="cls-1" d="M33.5,30.35v10.12c0,1.83-.24,3.3-.71,4.39-.47,1.09-1.25,1.88-2.32,2.36-1.08.48-2.51.72-4.31.72-1.95,0-3.5-.24-4.66-.72-1.16-.48-1.99-1.27-2.5-2.36-.51-1.09-.76-2.55-.76-4.39v-10.12h5.43v10.12c0,.92.06,1.62.19,2.12s.35.85.67,1.04c.33.19.78.29,1.36.29s1.03-.1,1.35-.29c.32-.19.54-.54.66-1.04s.19-1.21.19-2.12v-10.12h5.43Z"/>
      <path class="cls-1" d="M43.35,30.1c1.48,0,2.74.14,3.76.41,1.02.28,1.85.74,2.49,1.4s1.09,1.56,1.38,2.71c.28,1.15.43,2.6.43,4.35s-.14,3.2-.43,4.35c-.28,1.15-.74,2.05-1.38,2.71s-1.46,1.12-2.49,1.4c-1.02.27-2.28.41-3.76.41s-2.75-.03-3.95-.08c-1.2-.05-2.34-.11-3.43-.17l2.2-3.85c.58.07,1.32.11,2.21.14.89.03,1.88.04,2.96.04.62,0,1.09-.13,1.43-.4.33-.27.57-.76.7-1.47s.2-1.74.2-3.08-.07-2.36-.2-3.08c-.13-.72-.37-1.21-.7-1.47-.33-.27-.81-.4-1.43-.4h-2.69c-.77,0-1.53,0-2.26-.02l-2.43-3.65c1.1-.07,2.24-.12,3.41-.17,1.18-.05,2.5-.08,3.96-.08ZM41.4,30.35v17.25h-5.43v-17.25h5.43Z"/>
      <path class="cls-1" d="M58.9,30.35v17.25h-5.38v-17.25h5.38Z"/>
      <path class="cls-1" d="M75.55,30.35v4.05h-15.08v-4.05h15.08ZM70.72,30.35v17.25h-5.42v-17.25h5.42Z"/>
      <path class="cls-1" d="M88.37,30c.9,0,1.91.05,3.04.16s2.2.35,3.24.71l-.33,3.47c-.75-.02-1.68-.03-2.79-.04-1.11,0-2.2-.01-3.29-.01-.32,0-.58,0-.79.02-.21.02-.37.05-.49.1-.12.05-.2.12-.25.2-.05.08-.08.19-.08.32,0,.23.1.43.31.59.21.16.6.35,1.19.59l3.12,1.3c1.43.62,2.44,1.33,3.01,2.14.57.81.86,1.85.86,3.11,0,.97-.12,1.79-.35,2.46-.23.68-.62,1.22-1.16,1.62-.54.41-1.26.71-2.16.9-.9.19-2.03.29-3.38.29-.58,0-1.47-.05-2.65-.14-1.18-.09-2.52-.33-4.02-.71l.33-3.8c1,.02,1.92.04,2.75.06.83.02,1.55.04,2.16.05.61,0,1.06.01,1.36.01.47,0,.82-.02,1.06-.05.24-.03.41-.1.5-.19.09-.09.14-.21.14-.36,0-.17-.03-.3-.1-.41-.07-.11-.18-.21-.35-.31-.17-.1-.41-.21-.73-.33l-3.42-1.5c-1.4-.63-2.39-1.34-2.98-2.12-.58-.78-.88-1.81-.88-3.08,0-.98.13-1.8.39-2.45.26-.65.66-1.17,1.21-1.55.55-.38,1.28-.66,2.19-.82.91-.17,2.01-.25,3.31-.25Z"/>
      <path class="cls-1" d="M104.37,30.1c1.83,0,3.27.17,4.3.51,1.03.34,1.77.94,2.2,1.79.43.85.65,2.04.65,3.58s-.2,2.7-.61,3.54c-.41.84-1.08,1.43-2.01,1.78-.93.34-2.19.51-3.77.51-.83,0-1.67-.05-2.5-.14-.83-.09-1.61-.21-2.34-.35-.73-.14-1.35-.29-1.86-.45s-.88-.3-1.07-.44l.07-2.45h6.83c.5,0,.88-.05,1.15-.16s.45-.31.55-.6c.1-.29.15-.7.15-1.24s-.05-.97-.15-1.28c-.1-.3-.28-.5-.55-.61s-.65-.16-1.15-.16c-1.7,0-3.15,0-4.35.02-1.2.02-2.02.05-2.45.1l-.38-3.7c.77-.08,1.49-.14,2.16-.17.68-.03,1.41-.05,2.21-.06.8,0,1.78-.01,2.93-.01ZM102.5,30.35v17.25h-5.43v-17.25h5.43Z"/>
      <path class="cls-1" d="M117.15,30.25c1,0,2.03,0,3.09.01,1.06,0,2.1.03,3.11.08,1.02.04,1.94.12,2.78.24l-.25,3.83h-6.33c-.32,0-.57.08-.75.25-.18.17-.28.38-.28.65v7.35c0,.27.09.48.28.65.18.17.43.25.75.25h6.33l.25,3.83c-.83.1-1.76.17-2.78.22s-2.05.08-3.11.09c-1.06,0-2.09.01-3.09.01-1.18,0-2.15-.36-2.91-1.09-.76-.73-1.14-1.67-1.14-2.84v-9.6c0-1.17.38-2.11,1.14-2.84.76-.72,1.73-1.09,2.91-1.09ZM113.55,36.97h11.43v3.6h-11.43v-3.6Z"/>
      <path class="cls-1" d="M135.27,30.05c.9,0,1.67.02,2.3.08.63.05,1.21.12,1.74.21.52.09,1.07.22,1.64.39l-.4,3.95c-.58-.02-1.12-.03-1.62-.03s-1.03,0-1.6-.01c-.57,0-1.25-.01-2.05-.01-.57,0-1,.12-1.31.36s-.52.67-.64,1.3c-.12.62-.17,1.52-.17,2.69s.06,2.06.17,2.69c.12.62.33,1.06.64,1.3.31.24.75.36,1.31.36,1.25,0,2.3-.01,3.14-.04s1.68-.08,2.51-.16l.4,3.95c-.87.3-1.75.51-2.66.64s-2.04.19-3.39.19c-1.9,0-3.42-.29-4.58-.86-1.15-.58-1.98-1.51-2.49-2.81s-.76-3.05-.76-5.25.25-3.95.76-5.25,1.34-2.24,2.49-2.81c1.15-.58,2.68-.86,4.58-.86Z"/>
      <path class="cls-1" d="M148.47,30.35v17.25h-5.38v-17.25h5.38Z"/>
      <path class="cls-1" d="M160.8,30.35c.43,0,.82.12,1.15.38.33.25.56.59.67,1.03l4.47,15.85h-5.52l-2.6-11.22c-.07-.32-.12-.65-.17-.99-.05-.34-.09-.67-.12-.99h-.67c-.03.32-.08.65-.12.99-.05.34-.11.67-.18.99l-2.6,11.22h-5.53l4.48-15.85c.12-.43.34-.78.67-1.03.33-.25.72-.38,1.15-.38h4.92ZM162.92,40.07v3.8h-9.17v-3.8h9.17Z"/>
      <path class="cls-1" d="M173.55,30.35v12.05c0,.27.1.48.29.65.19.17.45.25.76.25h5.8l.25,4.05c-1.28.17-2.65.27-4.11.3-1.46.03-2.9.05-4.31.05-1.25,0-2.25-.36-2.99-1.09-.74-.73-1.11-1.67-1.11-2.84v-13.42h5.42Z"/>
      <path class="cls-1" d="M187.5,30.35v17.25h-5.38v-17.25h5.38Z"/>
      <path class="cls-1" d="M196.67,30c.9,0,1.91.05,3.04.16s2.2.35,3.24.71l-.33,3.47c-.75-.02-1.68-.03-2.79-.04-1.11,0-2.2-.01-3.29-.01-.32,0-.58,0-.79.02-.21.02-.37.05-.49.1-.12.05-.2.12-.25.2-.05.08-.08.19-.08.32,0,.23.1.43.31.59.21.16.6.35,1.19.59l3.12,1.3c1.43.62,2.44,1.33,3.01,2.14s.86,1.85.86,3.11c0,.97-.12,1.79-.35,2.46-.23.68-.62,1.22-1.16,1.62-.54.41-1.26.71-2.16.9-.9.19-2.03.29-3.38.29-.58,0-1.47-.05-2.65-.14-1.18-.09-2.52-.33-4.02-.71l.32-3.8c1,.02,1.92.04,2.75.06.83.02,1.55.04,2.16.05.61,0,1.06.01,1.36.01.47,0,.82-.02,1.06-.05.24-.03.41-.1.5-.19s.14-.21.14-.36c0-.17-.03-.3-.1-.41s-.18-.21-.35-.31c-.17-.1-.41-.21-.72-.33l-3.43-1.5c-1.4-.63-2.39-1.34-2.97-2.12-.58-.78-.88-1.81-.88-3.08,0-.98.13-1.8.39-2.45.26-.65.66-1.17,1.21-1.55.55-.38,1.28-.66,2.19-.82.91-.17,2.01-.25,3.31-.25Z"/>
      <path class="cls-1" d="M219.4,30.35v4.05h-15.08v-4.05h15.08ZM214.57,30.35v17.25h-5.42v-17.25h5.42Z"/>
      <path class="cls-1" d="M227.5,30c.9,0,1.91.05,3.04.16s2.2.35,3.24.71l-.33,3.47c-.75-.02-1.68-.03-2.79-.04-1.11,0-2.2-.01-3.29-.01-.32,0-.58,0-.79.02-.21.02-.37.05-.49.1-.12.05-.2.12-.25.2-.05.08-.08.19-.08.32,0,.23.1.43.31.59.21.16.6.35,1.19.59l3.12,1.3c1.43.62,2.44,1.33,3.01,2.14s.86,1.85.86,3.11c0,.97-.12,1.79-.35,2.46-.23.68-.62,1.22-1.16,1.62-.54.41-1.26.71-2.16.9-.9.19-2.03.29-3.38.29-.58,0-1.47-.05-2.65-.14-1.18-.09-2.52-.33-4.02-.71l.32-3.8c1,.02,1.92.04,2.75.06.83.02,1.55.04,2.16.05.61,0,1.06.01,1.36.01.47,0,.82-.02,1.06-.05.24-.03.41-.1.5-.19s.14-.21.14-.36c0-.17-.03-.3-.1-.41s-.18-.21-.35-.31c-.17-.1-.41-.21-.72-.33l-3.43-1.5c-1.4-.63-2.39-1.34-2.97-2.12-.58-.78-.88-1.81-.88-3.08,0-.98.13-1.8.39-2.45.26-.65.66-1.17,1.21-1.55.55-.38,1.28-.66,2.19-.82.91-.17,2.01-.25,3.31-.25Z"/>
    </g>
  </g>
</svg>