<?xml version="1.0" encoding="UTF-8"?>
<svg id="Layer_2" data-name="Layer 2" xmlns="http://www.w3.org/2000/svg" viewBox="0 0 387.59 424.27">
  <defs>
    <style>
      .cls-1 {
        fill: #244b76;
      }
    </style>
  </defs>
  <g id="Layer_1-2" data-name="Layer 1">
    <path class="cls-1" d="M96.22,393.89l-7.59,30.37h37.93l3.36-13.37c20,7.64,41.5,11.88,63.86,11.88,36.11,0,69.93-10.96,98.91-29.79l30.57,31.28h49.01l-28.3-79.52c27.25-36.42,43.6-82.81,43.6-133.38C387.59,94.8,300.65,0,193.79,0S0,94.77,0,211.35c0,77.79,38.71,145.84,96.22,182.55ZM296.03,343.85l-26.78-27.52-26.38,25.67,23.57,24.22c-21.73,12.67-46.44,19.84-72.64,19.84-19.3,0-37.81-3.72-54.91-10.84l33.33-133.95h95.77l34.31,96.44c-2.03,2.17-4.12,4.1-6.26,6.14ZM350.77,211.45c0,32.77-8.16,63.46-22.33,89.69L236.97,43.57c65.63,20.91,113.8,88.26,113.8,167.88ZM211.64,82.41l43.27,121.86h-73.55l30.28-121.86ZM184.91,37.13l-79.2,318.78c-41.55-31.44-68.89-84.46-68.89-144.45,0-92.96,65.65-169.18,148.1-174.32Z"/>
  </g>
</svg>