<svg xmlns="http://www.w3.org/2000/svg" fill="none" class="size-full text-gray-300" viewBox="0 0 16 16">
  <rect width="15" height="15" x=".62854" y=".359985" fill="#fff" rx="7.5"/>
  <path fill="currentColor" d="M8.12421 7.20374c1.0873 0 1.96879-.88145 1.96879-1.96875 0-1.08732-.88149-1.96875-1.96879-1.96875-1.08731 0-1.96875.88143-1.96875 1.96875 0 1.0873.88144 1.96875 1.96875 1.96875ZM11.818 10.5975c-1.5188 2.0437-4.39694 2.4656-6.44069.9562-.3656-.2719-.68435-.5906-.95624-.9562-.13125-.1969-.15-.45-.04688-.65627l.14063-.29064c.32814-.69375 1.02189-1.13435 1.79064-1.13435h3.64685c.74999 0 1.43439.43125 1.77189 1.10625l.15.30935c.0938.21566.0844.46876-.0562.66566Z"/>
</svg>
